PathFileType	4	(X/Y/Z)	..\data\2014014\dynamic\2014014_C4_04.trc
DataRate	CameraRate	NumFrames	NumMarkers	Units	OrigDataRate	OrigDataStartFrame	OrigNumFrames
100.000000	100.000000	4	48	mm	100.000000	133	178
Frame#	Time	L_IAS			L_IPS			R_IPS			R_IAS			L_FTC			L_FLE			L_FME			L_FAX			L_TTC			L_FAL			L_TAM			L_FCC			L_FM1			L_FM2			L_FM5			R_FTC			R_FLE			R_FME			R_FAX			R_TTC			R_FAL			R_TAM			R_FCC			R_FM1			R_FM2			R_FM5			CV7			TV10			SXS			SJN			L_SAA			L_SAE			L_HLE			L_HME			L_UOA			L_RSP			L_UHE			L_HM2			L_HM5			R_SAA			R_SAE			R_HLE			R_HME			R_UOA			R_RSP			R_UHE			R_HM2			R_HM5			
		X1	Y1	Z1	X2	Y2	Z2	X3	Y3	Z3	X4	Y4	Z4	X5	Y5	Z5	X6	Y6	Z6	X7	Y7	Z7	X8	Y8	Z8	X9	Y9	Z9	X10	Y10	Z10	X11	Y11	Z11	X12	Y12	Z12	X13	Y13	Z13	X14	Y14	Z14	X15	Y15	Z15	X16	Y16	Z16	X17	Y17	Z17	X18	Y18	Z18	X19	Y19	Z19	X20	Y20	Z20	X21	Y21	Z21	X22	Y22	Z22	X23	Y23	Z23	X24	Y24	Z24	X25	Y25	Z25	X26	Y26	Z26	X27	Y27	Z27	X28	Y28	Z28	X29	Y29	Z29	X30	Y30	Z30	X31	Y31	Z31	X32	Y32	Z32	X33	Y33	Z33	X34	Y34	Z34	X35	Y35	Z35	X36	Y36	Z36	X37	Y37	Z37	X38	Y38	Z38	X39	Y39	Z39	X40	Y40	Z40	X41	Y41	Z41	X42	Y42	Z42	X43	Y43	Z43	X44	Y44	Z44	X45	Y45	Z45	X46	Y46	Z46	X47	Y47	Z47	X48	Y48	Z48	

134	1.33	1410.901489257813	1003.94091796875	-119.7296566040048	1198.29248046875	1010.849670410156	-28.94627714519412	1200.114135742188	998.6113891601565	68.94627714519412	1401.622192382813	980.2796020507815	159.7296566040048	1343.275024414063	907.9724731445315	-168.8364664171059	1410.80908203125	500.1032714843751	-132.8068082918402	1396.0517578125	495.8865661621095	4.73616952572034	1399.726806640625	436.6284790039064	-127.5034208841393	1464.560668945313	434.6814880371095	-68.54266881243612	1411.781494140625	65.51245880126955	-119.3286701318263	1430.925659179688	97.96543121337893	-17.89666597850206	1359.413696289063	20.91873931884766	-63.35014095580774	1560.694946289063	21.98027420043946	-34.67283560363096	1575.59033203125	37.60361099243165	-75.85478284948589	1519.568115234375	18.32602500915528	-136.6788472364645	1326.995239257813	871.9861450195315	201.77977018891	1293.887573242188	468.2780151367189	168.1761551397474	1339.624877929688	454.3523559570314	39.89448362637252	1245.510009765625	440.8411865234376	167.9111784980278	1297.529541015625	388.7406311035157	108.8162272066081	952.715759277344	220.9822235107422	159.7178475624646	1002.788818359375	205.3302917480469	58.05492402872793	909.0247802734377	230.3407287597657	103.5203760469626	994.4653930664065	57.33202743530275	74.31989194537282	1006.214782714844	69.18165588378908	116.2531535677032	969.217956542969	90.25988006591798	178.1868656505937	1251.1025390625	1529.233154296875	22.33197663849248	1155.031005859375	1286.68017578125	22.33197663849248	1430.112426757813	1252.958984375	22.33197663849248	1377.548706054688	1435.816528320313	22.23227489079067	1215.43994140625	1449.540893554688	-219.6455385149378	1261.33056640625	1442.418823242188	-176.1371861577316	1236.966186523438	1101.698974609375	-258.8717543254914	1208.078491210938	1094.643432617188	-174.535390332801	1199.56005859375	1085.113891601563	-210.2361499973812	1308.274536132813	840.5744628906252	-239.5967179865834	1233.4755859375	847.8047485351565	-265.4190523397495	1324.7470703125	753.5725097656251	-244.7565623451693	1219.2568359375	765.1849975585939	-246.8581665756566	1252.359497070313	1445.025512695313	259.6455385149378	1302.513549804688	1438.107299804688	216.1373355492392	1318.22021484375	1101.0400390625	304.6079114146845	1295.055541992188	1082.706420898438	207.9388096802291	1278.911987304688	1076.306518554688	248.860189315611	1444.204711914063	861.7965087890627	279.4189228109762	1377.607666015625	857.7487792968752	306.295032088454	1489.645385742188	778.7349243164065	285.0291244398524	1385.34716796875	759.3830566406251	287.1250341336798	
135	1.34	1421.407104492188	1004.649291992188	-119.7296566040048	1208.334838867188	1012.008483886719	-28.94627714519412	1210.030395507813	999.639587402344	68.94627714519412	1411.451538085938	981.5522460937502	159.7296566040048	1352.7314453125	908.4132080078127	-168.8364664171059	1415.03564453125	499.9547729492189	-132.8068082918402	1400.573852539063	496.0561523437501	4.73616952572034	1402.969604492188	436.6085815429689	-127.5034208841393	1468.279663085938	433.9791564941407	-68.54266881243612	1411.526489257813	65.61021423339845	-119.3286701318263	1431.066528320313	97.91404724121097	-17.89666597850206	1359.288208007813	20.85129356384278	-63.35014095580774	1560.598266601563	21.85929679870606	-34.67283560363096	1575.664794921875	37.62029647827149	-75.85478284948589	1519.519287109375	18.49814033508301	-136.6788472364645	1337.8251953125	872.912536621094	201.77977018891	1316.797973632813	468.5975952148439	168.1761551397474	1363.251098632813	455.2605590820314	39.89448362637252	1268.893188476563	441.9924926757814	167.9111784980278	1320.6064453125	389.3989257812501	108.8162272066081	972.4516601562502	228.5243835449219	159.7178475624646	1022.117065429688	211.9392089843751	58.05492402872793	928.5806274414065	238.6284942626954	103.5203760469626	1011.454467773438	63.39513397216798	74.31989194537282	1023.158142089844	75.24096679687501	116.2531535677032	986.8491210937502	98.23224639892581	178.1868656505937	1262.075561523438	1530.551147460938	22.33197663849248	1165.728149414063	1288.083251953125	22.33197663849248	1440.913696289063	1254.073486328125	22.33197663849248	1388.337890625	1437.003662109375	22.23227489079067	1227.172973632813	1450.7177734375	-219.6455385149378	1273.063110351563	1443.5908203125	-176.1371861577316	1251.349365234375	1102.72607421875	-258.8717543254914	1221.721313476563	1095.27099609375	-174.535390332801	1213.779174804688	1085.478271484375	-210.2361499973812	1327.164428710938	842.9075317382815	-239.5967179865834	1252.399169921875	848.6441040039065	-265.4190523397495	1345.487426757813	756.3822021484376	-244.7565623451693	1239.837158203125	765.7095336914064	-246.8581665756566	1262.722412109375	1446.407836914063	259.6455385149378	1312.901489257813	1439.401611328125	216.1373355492392	1327.322265625	1102.068725585938	304.6079114146845	1303.811645507813	1084.163330078125	207.9388096802291	1287.884033203125	1077.75634765625	248.860189315611	1450.747802734375	861.7440185546877	279.4189228109762	1384.203002929688	858.2944946289065	306.295032088454	1494.78955078125	777.3873291015627	285.0291244398524	1390.515747070313	759.7937011718751	287.1250341336798	
136	1.35	1431.790893554688	1005.152404785156	-119.7296566040048	1218.280151367188	1013.157592773438	-28.94627714519412	1219.841552734375	1000.749694824219	68.94627714519412	1421.1494140625	982.9157714843752	159.7296566040048	1362.0068359375	908.750427246094	-168.8364664171059	1418.831420898438	499.7535095214845	-132.8068082918402	1405.114379882813	496.1744384765626	4.73616952572034	1405.779907226563	436.5341796875001	-127.5034208841393	1471.666748046875	433.2517395019532	-68.54266881243612	1411.209106445313	65.65071105957033	-119.3286701318263	1431.201904296875	97.85164642333987	-17.89666597850206	1359.116943359375	20.78374862670899	-63.35014095580774	1560.481201171875	21.75313949584961	-34.67283560363096	1575.637939453125	37.57473754882813	-75.85478284948589	1519.440307617188	18.5066204071045	-136.6788472364645	1348.464233398438	874.053894042969	201.77977018891	1339.547119140625	469.4336853027345	168.1761551397474	1386.669677734375	456.8624572753907	39.89448362637252	1292.113159179688	443.5189819335939	167.9111784980278	1343.715209960938	390.6141967773439	108.8162272066081	993.078796386719	235.0144805908204	159.7178475624646	1042.393676757813	217.9109497070313	58.05492402872793	948.9312133789065	245.4257202148438	103.5203760469626	1031.102294921875	69.05480194091798	74.31989194537282	1042.593627929688	81.15209960937501	116.2531535677032	1006.652038574219	105.3242263793946	178.1868656505937	1272.9814453125	1531.8408203125	22.33197663849248	1176.290283203125	1289.47900390625	22.33197663849248	1451.610961914063	1255.119384765625	22.33197663849248	1399.030029296875	1438.117797851563	22.23227489079067	1238.93896484375	1451.903442382813	-219.6455385149378	1284.876342773438	1444.76318359375	-176.1371861577316	1265.75634765625	1103.766845703125	-258.8717543254914	1235.244750976563	1095.90673828125	-174.535390332801	1228.019897460938	1085.83349609375	-210.2361499973812	1346.175048828125	845.3703613281252	-239.5967179865834	1271.508422851563	849.5557861328127	-265.4190523397495	1366.492065429688	759.4234619140626	-244.7565623451693	1260.685913085938	766.3242187500001	-246.8581665756566	1272.814697265625	1447.660400390625	259.6455385149378	1323.00048828125	1440.5791015625	216.1373355492392	1336.34423828125	1102.9580078125	304.6079114146845	1312.39501953125	1085.411865234375	207.9388096802291	1296.758422851563	1079.025146484375	248.860189315611	1457.285034179688	861.674255371094	279.4189228109762	1390.965698242188	858.7776489257815	306.295032088454	1499.99267578125	776.0471801757815	285.0291244398524	1395.8515625	760.1848144531251	287.1250341336798	
137	1.36	1442.052856445313	1005.497619628906	-119.7296566040048	1228.171264648438	1014.298034667969	-28.94627714519412	1229.593505859375	1001.937805175781	68.94627714519412	1430.777587890625	984.3811645507815	159.7296566040048	1371.112670898438	909.0075683593752	-168.8364664171059	1422.31591796875	499.533905029297	-132.8068082918402	1409.719360351563	496.2541503906251	4.73616952572034	1408.306274414063	436.4400634765626	-127.5034208841393	1474.807495117188	432.526336669922	-68.54266881243612	1410.869140625	65.65442657470705	-119.3286701318263	1431.33935546875	97.78725433349612	-17.89666597850206	1358.9287109375	20.7231502532959	-63.35014095580774	1560.352905273438	21.64079475402832	-34.67283560363096	1575.546020507813	37.46312713623048	-75.85478284948589	1519.347290039063	18.38083267211914	-136.6788472364645	1358.985717773438	875.416198730469	201.77977018891	1362.075561523438	470.7759399414064	168.1761551397474	1409.828247070313	459.124725341797	39.89448362637252	1315.111694335938	445.3801879882814	167.9111784980278	1366.790405273438	392.3704528808595	108.8162272066081	1014.529052734375	240.2857971191407	159.7178475624646	1063.576782226563	223.0774078369141	58.05492402872793	970.0106201171877	250.5904083251954	103.5203760469626	1053.2763671875	74.10361480712892	74.31989194537282	1064.407958984375	86.68260192871095	116.2531535677032	1028.509399414063	111.3079147338867	178.1868656505937	1283.807495117188	1533.100341796875	22.33197663849248	1186.733520507813	1290.85595703125	22.33197663849248	1462.199951171875	1256.11328125	22.33197663849248	1409.625366210938	1439.17138671875	22.23227489079067	1250.709106445313	1453.109252929688	-219.6455385149378	1296.742797851563	1445.949462890625	-176.1371861577316	1280.201538085938	1104.837646484375	-258.8717543254914	1248.656982421875	1096.568359375	-174.535390332801	1242.2978515625	1086.20166015625	-210.2361499973812	1365.263427734375	847.971374511719	-239.5967179865834	1290.771728515625	850.5693969726565	-265.4190523397495	1387.701049804688	762.7044677734376	-244.7565623451693	1281.761596679688	767.0677490234376	-246.8581665756566	1282.643798828125	1448.789306640625	259.6455385149378	1332.809326171875	1441.662353515625	216.1373355492392	1345.253295898438	1103.727416992188	304.6079114146845	1320.82470703125	1086.478515625	207.9388096802291	1305.511962890625	1080.13232421875	248.860189315611	1463.82080078125	861.6000976562502	279.4189228109762	1397.877807617188	859.2131347656252	306.295032088454	1505.283813476563	774.763122558594	285.0291244398524	1401.378295898438	760.5704956054689	287.1250341336798	
